<svg width="60" height="60" viewBox="0 0 60 60" fill="none" xmlns="http://www.w3.org/2000/svg">
<circle cx="29.499" cy="18.4998" r="15" fill="white"/>
<path d="M31.0869 14.0815L28.4848 18.9795L25.8828 23.8774H36.291L33.6889 18.9795L31.0869 14.0815Z" fill="#5F2D8C"/>
<path d="M31.0869 14.0815L28.4848 18.9795L25.8828 23.8774H36.291L33.6889 18.9795L31.0869 14.0815Z" fill="#5F2D8C"/>
<path fill-rule="evenodd" clip-rule="evenodd" d="M25.8828 23.8774H36.9032L34.1481 18.6733L31.393 13.4693L28.6379 18.6733L25.8828 23.8774ZM27.1414 23.085L29.2672 19.0695L31.393 15.0541L35.6447 23.085H27.1414Z" fill="#5F2D8C"/>
<path d="M35.6772 14.0815L32.9221 18.9795L30.167 23.8774H41.1874L38.4323 18.9795L35.6772 14.0815Z" fill="#231F20"/>
<path fill-rule="evenodd" clip-rule="evenodd" d="M30.167 23.8774H41.1874L38.4323 18.6733L35.6772 13.4693L32.9221 18.6733L30.167 23.8774ZM31.4255 23.085L33.5513 19.0695L35.6772 15.0541L39.9288 23.085H31.4255Z" fill="#231F20"/>
<path fill-rule="evenodd" clip-rule="evenodd" d="M30.167 23.8774H41.1874L38.4323 18.6733L35.6772 13.4693L32.9221 18.6733L30.167 23.8774ZM31.4255 23.085L33.5513 19.0695L35.6772 15.0541L39.9288 23.085H31.4255Z" fill="#231F20"/>
<path fill-rule="evenodd" clip-rule="evenodd" d="M24.0453 23.8774L27.1065 18.6734L30.1677 13.4693H17.9229L20.9841 18.6734L24.0453 23.8774ZM24.0453 22.2926L19.3212 14.2617H28.7694L26.4073 18.2772L24.0453 22.2926Z" fill="#231F20"/>
<path fill-rule="evenodd" clip-rule="evenodd" d="M24.0453 23.8774L27.1065 18.6734L30.1677 13.4693H17.9229L20.9841 18.6734L24.0453 23.8774ZM24.0453 22.2926L19.3212 14.2617H28.7694L26.4073 18.2772L24.0453 22.2926Z" fill="#231F20"/>
<path fill-rule="evenodd" clip-rule="evenodd" d="M29.5399 0C24.5918 0.0239155 19.8591 2.01612 16.3791 5.53414C12.9018 9.05454 10.967 13.8117 11.0004 18.7598C11.0148 32.9443 29.0427 60 29.5949 60C30.1258 60 48.103 32.9082 48.0914 18.7237C48.1177 13.7803 46.1758 9.02822 42.696 5.51761C39.2163 2.00437 34.4832 0.019102 29.5399 0ZM29.571 33.2381C25.6608 33.2836 21.8916 31.7697 19.0986 29.0313C16.3076 26.293 14.7196 22.555 14.6885 18.6446C14.6598 14.732 16.188 10.9701 18.936 8.18871C21.6863 5.40728 25.4288 3.83363 29.3417 3.8193C33.2519 3.80256 37.0088 5.34514 39.781 8.10501C42.5505 10.8649 44.1098 14.615 44.1098 18.5272C44.1218 22.4016 42.5983 26.1252 39.8743 28.8803C37.1503 31.6378 33.4453 33.2046 29.571 33.2381Z" fill="#FDD20C"/>
</svg>
